<svg version="1.1" preserveAspectRatio="none" xmlns="http://www.w3.org/2000/svg" width="500" height="500" viewBox="0 0 500 500"><rect width="100%" height="100%" fill="#222222" fill-opacity="1"/><svg viewBox="71.2502 434.4 337.6724 240" width="333" height="236.67910080894976" x="83.5px" y="131.6604px" xmlns="http://www.w3.org/2000/svg" xmlns:xlink="http://www.w3.org/1999/xlink" preserveAspectRatio="none"><defs></defs><style>.a7KDWqqaqfillColor {fill:#ebebeb;fill-opacity:0;}.aZzOTVRhffillColor {fill:#ebebeb;fill-opacity:0;}.companyName {fill:#F3F3F3;fill-opacity:1;}.icon3-str {stroke:#A6A6A6;stroke-opacity:1;}.shapeStroke-str {stroke:#F3F3F3;stroke-opacity:1;}</style><g opacity="1" transform="rotate(0 91.2502 454.4)">
<svg width="317.6724" height="220" x="91.2502" y="454.4" version="1.1" preserveAspectRatio="none" viewBox="0 0 317.6724 220">
  <defs><rect x="1.65" y="1.65" width="314.37239999999997" height="216.7" rx="0%" ry="0%" id="id-ZzOTVRhf1690597402862"></rect></defs><use class="aZzOTVRhffillColor shapeStroke-str" style="stroke-width:3.3;" xlink:href="#id-ZzOTVRhf1690597402862"></use>
</svg>
</g><g opacity="1" transform="rotate(0 71.2502 434.4)">
<svg width="317.6724" height="220" x="71.2502" y="434.4" version="1.1" preserveAspectRatio="none" viewBox="0 0 317.6724 220">
  <defs><rect x="1.65" y="1.65" width="314.37239999999997" height="216.7" rx="0px" ry="0px" id="id-7KDWqqaq1690597402863"></rect></defs><use class="a7KDWqqaqfillColor shapeStroke-str" style="stroke-width:3.3;" xlink:href="#id-7KDWqqaq1690597402863"></use>
</svg>
</g><g opacity="1" transform="rotate(0 131.2502 494.4)">
<svg width="217.6724" height="120" x="131.2502" y="494.4" version="1.1" preserveAspectRatio="none" viewBox="4.8 -28.48 52.519999999999996 28.96">
  <g transform="matrix(1 0 0 1 0 0)" class="companyName"><path id="id-D6z1nYkh2" d="M29.20-28L27.36-28L27.36-6.60L27.20-6.60L5-28.48L4.80-28.48L4.80 0L6.64 0L6.64-21.40L6.80-21.40L29 0.48L29.20 0.48L29.20-28Z M42.44 0L42.44-11.68Q43.48-11.40 44.68-11.22Q45.88-11.04 47.32-11.04L47.32-11.04Q49.76-11.04 51.64-11.72Q53.52-12.40 54.78-13.58Q56.04-14.76 56.68-16.30Q57.32-17.84 57.32-19.60L57.32-19.60Q57.32-21.28 56.76-22.82Q56.20-24.36 55.06-25.50Q53.92-26.64 52.20-27.32Q50.48-28 48.16-28L48.16-28L38.80-28L38.80 0L42.44 0ZM42.44-13.32L42.44-26.24L46.64-26.24Q48.32-26.24 49.60-25.64Q50.88-25.04 51.72-24.06Q52.56-23.08 52.98-21.86Q53.40-20.64 53.40-19.44L53.40-19.44Q53.40-18.28 53.02-17.10Q52.64-15.92 51.80-14.96Q50.96-14 49.68-13.40Q48.40-12.80 46.60-12.80L46.60-12.80Q45.36-12.80 44.32-12.90Q43.28-13 42.44-13.32L42.44-13.32Z"/></g>
</svg>
</g></svg></svg>